<?xml version="1.0" encoding="utf-8"?>
<!-- Generator: Adobe Illustrator 27.5.0, SVG Export Plug-In . SVG Version: 6.00 Build 0)  -->
<svg version="1.1" id="orange" xmlns="http://www.w3.org/2000/svg" xmlns:xlink="http://www.w3.org/1999/xlink" x="0px" y="0px"
	 viewBox="0 0 800 800" style="enable-background:new 0 0 800 800;" xml:space="preserve">
<style type="text/css">
	.st0{fill:#FF8400;}
	.st1{fill:#A8D626;}
	#orange:hover
	{
		transform:scale(1.01);
	}
	#orange:hover #orange-body{
		fill: #66562B ;
	}
</style>
<script>
const orange = document.querySelector("#orange");

function logId() {
	console.log(this.id)
}

orange.addEventListener("click", logId);
</script>
<g>
	<g id="orange-body">
		<g>
			<g>
				<circle class="st0" cx="400" cy="492.2" r="296.9"/>
			</g>
			<g>
				<path d="M400,800C230.3,800,92.2,661.9,92.2,492.2c0-169.8,138.1-307.9,307.8-307.9c169.7,0,307.8,138.1,307.8,307.9
					C707.8,661.9,569.7,800,400,800z M400,206.1c-157.7,0-286,128.3-286,286c0,157.7,128.3,286,286,286c157.7,0,286-128.3,286-286
					C686,334.4,557.7,206.1,400,206.1z"/>
			</g>
		</g>
		<g>
			<g>
				<path d="M166.4,495.4h-21.8c0-145.5,116.2-258.6,254.4-258.6v21.8C268.1,258.6,166.4,364.5,166.4,495.4z"/>
			</g>
		</g>
	</g>
	<g id="leaf5">
		<g>
			<g>
				<path class="st1" d="M413.4,148.3c0,0,19.3-149.4,176.6-136.6C589.9,11.7,567.3,170.6,413.4,148.3z"/>
			</g>
			<g>
				<path d="M441.9,161.4c-9.7,0-19.8-0.8-30.1-2.3l-10.6-1.5l1.4-10.7C402.7,145.5,423.2,0,571.4,0c6.3,0,12.9,0.3,19.5,0.8
					l11.6,0.9l-1.6,11.5C600.5,14.7,578.1,161.4,441.9,161.4z M426.3,138.8c56.8,5,99.7-16.3,128-62.8
					c12.6-20.6,19.2-41.5,22.3-54.1c-1.8-0.1-3.5-0.1-5.3-0.1C463.6,21.8,433.6,107.7,426.3,138.8z"/>
			</g>
		</g>
		<g>
			<g>
				<path class="st1" d="M386.6,148.3c0,0-19.2-149.4-176.6-136.6C210.1,11.7,232.7,170.6,386.6,148.3z"/>
			</g>
			<g>
				<path d="M358.1,161.4L358.1,161.4c-136.1,0-158.6-146.7-158.8-148.2l-1.6-11.5l11.6-0.9c6.6-0.5,13.1-0.8,19.5-0.8
					c148.1,0,168.6,145.5,168.8,146.9l1.4,10.7l-10.6,1.5C377.9,160.6,367.7,161.4,358.1,161.4z M223.3,21.9
					c3.1,12.6,9.7,33.5,22.3,54.1c25.7,42.2,63.5,63.5,112.4,63.5h0c5.1,0,10.3-0.2,15.6-0.7c-7.3-31.1-37.3-117-145.1-117
					C226.9,21.8,225.1,21.8,223.3,21.9z"/>
			</g>
		</g>
	</g>
</g>
</svg>
