<?xml version="1.0" encoding="UTF-8"?>
<svg id="Layer_1" data-name="Layer 1" xmlns="http://www.w3.org/2000/svg" viewBox="0 0 716.75 716.75">
  <defs>
    <style>
      .cls-1 {
        fill: #5189d0;
      }

      .cls-2 {
        fill: #a87e0c;
      }

      .cls-3 {
        fill: #1b3f6d;
      }

      .cls-4 {
        fill: #ffefc3;
        opacity: .84;
      }

      .cls-5 {
        fill: #fdc847;
      }
    </style>
  </defs>
  <path id="Outer-border" class="cls-2" d="m358.36,634.93c-152.58,0-276.68-124.15-276.68-276.72S205.82,81.5,358.36,81.5s276.68,124.15,276.68,276.72c.03,152.6-124.1,276.72-276.68,276.72Zm329.77-263.06c7.8-9.83,15.6-19.69,23.41-29.52,5.83-7.35,7.97-18.48,0-25.55-10.2-9.07-20.36-18.14-30.56-27.18,5.13-11.52,10.25-22.99,15.38-34.51,3.83-8.62,2.96-19.86-6.48-24.73-12.08-6.23-24.17-12.45-36.25-18.71,2.11-12.45,4.23-24.93,6.34-37.38,1.58-9.35-2.31-19.89-12.62-22.23-13.21-3.01-26.39-6.03-39.6-9.04-1.07-12.7-2.14-25.41-3.18-38.11-.82-9.61-7.61-18.34-18.08-18.09-13.41.37-26.84.7-40.25,1.07-4.23-12.14-8.48-24.28-12.7-36.42-3.21-9.24-12.28-15.47-22.25-12.62-12.79,3.66-25.6,7.3-38.39,10.96-7.13-10.76-14.28-21.49-21.44-32.26-5.44-8.2-15.86-11.66-24.73-6.48-11.44,6.7-22.9,13.38-34.33,20.09-9.6-8.65-19.21-17.32-28.84-25.97-7.35-6.62-18.28-7.18-25.55,0-9.41,9.3-18.82,18.62-28.2,27.92-11.49-6-22.98-12.03-34.48-18.03-8.79-4.59-19.49-2.25-24.73,6.48-6.76,11.32-13.55,22.65-20.31,33.97-12.67-2.96-25.35-5.94-38.02-8.93-9.72-2.28-19.35,2.9-22.22,12.62-3.72,12.59-7.46,25.21-11.18,37.8-13.13.28-26.25.56-39.38.82-10.11.23-17.72,8.06-18.08,18.09-.48,13.01-.96,26.06-1.41,39.07-12.76,3.55-25.49,7.13-38.25,10.68-9.86,2.76-14.73,12.59-12.62,22.23,2.76,12.62,5.52,25.24,8.28,37.89-11.52,6.65-23.01,13.3-34.53,19.94-8.93,5.16-10.9,15.97-6.48,24.73,5.8,11.49,11.58,22.99,17.35,34.48-9.52,9.32-19.04,18.65-28.56,27.97-7.38,7.24-6.42,18.2,0,25.55,8.45,9.66,16.9,19.35,25.32,29.02-6.93,11.41-13.83,22.85-20.76,34.28-5.38,8.87-1.52,19.21,6.48,24.73,10.56,7.27,21.13,14.51,31.66,21.78-3.89,12.85-7.75,25.69-11.63,38.54-3.01,10.03,3.55,18.93,12.62,22.25,11.97,4.37,23.97,8.76,35.94,13.13-.56,13.52-1.13,27.02-1.69,40.54-.45,10.56,8.62,17.13,18.08,18.09,12.59,1.27,25.18,2.51,37.77,3.75,2.84,13.35,5.66,26.68,8.51,40.03,2.23,10.42,12.98,14.06,22.22,12.65,12.42-1.92,24.81-3.8,37.21-5.69,6.08,12.25,12.17,24.54,18.28,36.82,4.76,9.61,16.2,10.14,24.73,6.48,11.49-4.9,22.98-9.8,34.48-14.71,8.99,10.39,17.94,20.82,26.93,31.18,4.79,5.55,15.89,7.44,21.89,2.85,11.13-8.54,22.22-17.07,33.35-25.61,11.29,7.86,22.62,15.72,33.91,23.58,6.03,4.2,17.24,3.13,21.89-2.82,8.62-11.01,17.27-22.03,25.88-33.02,12.96,4.82,25.88,9.63,38.84,14.45,6.87,2.56,17.41-1.44,20.39-8.31,5.61-12.79,11.24-25.61,16.84-38.37,13.83,1.44,27.66,2.9,41.52,4.37,7.3.76,16.25-6.03,17.44-13.27,2.25-13.75,4.48-27.49,6.76-41.24,13.86-2.03,27.72-4.08,41.57-6.14,7.35-1.07,13.91-10.2,13.27-17.41-1.24-13.78-2.48-27.55-3.72-41.33,11.52-4.85,23.01-9.69,34.53-14.51,8.53-3.58,16.22-12.09,12.62-22.25-4.59-12.93-9.18-25.89-13.74-38.82,10-7.58,19.97-15.16,29.94-22.7,7.44-5.63,12.48-15.83,6.48-24.73-7.58-11.49-15.21-22.82-22.84-34.17h0Z"/>
  <path id="inner_border" class="cls-3" d="m358.37,626.86c-148.13,0-268.61-120.53-268.61-268.64S210.27,89.57,358.37,89.57s268.61,120.53,268.61,268.64c.03,148.15-120.48,268.64-268.61,268.64Zm320.15-255.38c7.57-9.54,15.15-19.12,22.72-28.66,5.66-7.14,7.74-17.94,0-24.81-9.9-8.81-19.77-17.61-29.67-26.39,4.98-11.19,9.95-22.32,14.93-33.5,3.72-8.37,2.87-19.28-6.29-24.01-11.73-6.04-23.46-12.09-35.19-18.16,2.05-12.09,4.1-24.2,6.15-36.29,1.53-9.08-2.24-19.31-12.25-21.58-12.82-2.93-25.62-5.85-38.45-8.78-1.04-12.33-2.08-24.67-3.09-37-.79-9.33-7.38-17.8-17.56-17.56-13.02.36-26.06.68-39.08,1.04-4.1-11.79-8.23-23.57-12.33-35.36-3.12-8.97-11.92-15.01-21.6-12.25-12.41,3.56-24.86,7.08-37.27,10.64-6.92-10.45-13.86-20.87-20.81-31.31-5.28-7.96-15.4-11.32-24.01-6.29-11.1,6.51-22.23,12.99-33.33,19.5-9.32-8.4-18.65-16.82-28-25.22-7.14-6.43-17.75-6.97-24.8,0-9.13,9.03-18.27,18.08-27.37,27.1-11.16-5.83-22.31-11.68-33.47-17.5-8.53-4.46-18.92-2.19-24.01,6.29-6.56,10.99-13.15,21.99-19.72,32.98-12.31-2.87-24.61-5.77-36.92-8.67-9.43-2.22-18.79,2.82-21.58,12.25-3.61,12.22-7.25,24.48-10.86,36.7-12.74.27-25.49.55-38.23.79-9.82.22-17.2,7.82-17.56,17.56-.46,12.64-.93,25.3-1.37,37.93-12.39,3.45-24.75,6.92-37.13,10.37-9.57,2.68-14.3,12.22-12.25,21.58,2.68,12.25,5.36,24.5,8.04,36.78-11.18,6.45-22.34,12.91-33.53,19.36-8.67,5-10.58,15.51-6.29,24.01,5.63,11.16,11.24,22.32,16.84,33.47-9.24,9.05-18.49,18.1-27.73,27.16-7.16,7.03-6.23,17.67,0,24.81,8.2,9.38,16.41,18.79,24.58,28.17-6.73,11.08-13.43,22.18-20.15,33.28-5.22,8.62-1.48,18.65,6.29,24.01,10.25,7.06,20.51,14.08,30.74,21.14-3.77,12.47-7.52,24.94-11.29,37.41-2.93,9.74,3.45,18.38,12.25,21.61,11.62,4.24,23.27,8.51,34.89,12.74-.55,13.13-1.09,26.23-1.64,39.35-.44,10.26,8.37,16.63,17.56,17.56,12.22,1.23,24.45,2.43,36.67,3.64,2.76,12.96,5.5,25.9,8.26,38.86,2.16,10.12,12.61,13.65,21.57,12.28,12.06-1.86,24.09-3.69,36.12-5.52,5.91,11.9,11.81,23.82,17.75,35.74,4.62,9.33,15.72,9.85,24.01,6.29,11.16-4.76,22.31-9.52,33.47-14.28,8.72,10.09,17.42,20.21,26.14,30.27,4.65,5.39,15.42,7.22,21.25,2.76,10.8-8.29,21.58-16.57,32.38-24.86,10.97,7.63,21.96,15.26,32.92,22.89,5.85,4.07,16.73,3.04,21.25-2.73,8.37-10.69,16.76-21.39,25.13-32.05,12.58,4.68,25.13,9.35,37.71,14.03,6.67,2.49,16.9-1.39,19.8-8.07,5.44-12.42,10.91-24.86,16.35-37.25,13.43,1.39,26.85,2.82,40.31,4.24,7.08.74,15.78-5.85,16.93-12.88,2.19-13.35,4.35-26.69,6.56-40.04,13.45-1.97,26.91-3.97,40.36-5.96,7.14-1.04,13.51-9.9,12.88-16.9-1.2-13.37-2.41-26.75-3.61-40.12,11.18-4.7,22.34-9.41,33.53-14.08,8.29-3.47,15.75-11.73,12.25-21.61-4.46-12.55-8.91-25.13-13.34-37.69,9.71-7.36,19.39-14.71,29.07-22.04,7.22-5.47,12.11-15.37,6.29-24.01-7.36-11.16-14.77-22.15-22.18-33.17h0Z"/>
  <ellipse id="Background" class="cls-1" cx="358.23" cy="358.23" rx="295.76" ry="295.8"/>
  <path id="Zima" class="cls-5" d="m475.88,419.27l13.59-28.63h16.68l-13.39,28.63h-16.89Zm75.6-28.63h16.68l13.59,28.63h-17.09l-13.18-28.63Zm-37.95,0l14.77-32.07h.42l14.56,32.07h-29.74Zm-47.91,34.36h33.23l5.89-12.6h48.15l6.09,12.6h33.23l-60.82-128.27h-5.38l-60.4,128.27Zm-62.26-32.62l-6.85-16.62,25.34-54.22v31.57l-18.48,39.26Zm-64.04,26.9v-102.2l15.33,34.07v68.13h-15.33Zm-7.07,5.73h30.65v-56.1l26.65,60.68h4.98l27.31-60.26v55.68h30.65v-124.83h-28.04l-31.98,67.41-31.77-67.41h-28.45v124.83Zm-43.62-5.73v-44.67h15.33v44.67h-15.33Zm-7.07,5.73h30.65v-124.83h-30.65v124.83Zm-91.41-6.87l9.74-16.03h53.37v16.03h-63.11Zm-18.23-96.2v-16.03h56.52l-10.48,16.03h-46.04Zm-14.15,103.07h102.56v-28.63h-56.64l59-93.3v-2.9h-97.85v28.63h49.93l-57,93.31v2.9Z"/>
  <path id="Fun" class="cls-4" d="m195.69,236.41c0,.78-.18,1.56-.18,2.34,0,.42.06.9.06,1.38,0,.36-.06.72-.06,1.08,0,.6.12,1.14.12,1.68,0,.36-.12.78-.12,1.14l.18,5.65c0,.6-.12,1.2-.18,1.8v5.35c0,2.53-.36,4.99-.36,7.52,0,1.32.06,2.59.06,3.91,0,.78-.12,1.44-.36,2.22-.12.54-.3.6-.84.6-.9,0-1.02-.6-1.44-1.26-2.77-4.15-5.71-8.12-8.72-12.15l-2.16-3.13-1.98-2.47c-.78-1.08-1.44-2.22-2.16-3.31-.18-.3-.54-.48-.78-.78-1.98-3.19-4.81-8.18-7.21-10.82.06.54-.06,1.08-.06,1.56,0,.9.18,1.74.18,2.65s-.12,1.86-.12,2.77c0,.84.12,1.74.12,2.59.06,2.34.12,4.69.12,7.03,0,1.62-.18,3.25-.18,4.87s-.06,3.25-.06,4.87c0,1.38.18,2.77.18,4.15,0,.78,0,1.5-.06,2.28,0,.42-.36.66-.72.66-.42,0-.3-.42-.36-.66-.18-2.04-.18-4.03-.18-6.01,0-2.16.06-4.33.06-6.49,0-4.63-.18-9.2-.18-13.83,0-1.08-.18-2.16-.18-3.25,0-1.32-.06-2.65-.06-3.91,0-.9-.12-1.56,1.08-1.56.54,0,1.02.36,1.26.84.42.9,1.08,1.44,1.62,2.22.48.66.72,1.56,1.14,2.28.12.18.3.3.42.42.42.42,1.62,2.47,1.92,3.07l.48.78c.72,1.02,1.56,2.04,2.22,3.07.9,1.62,2.04,3.13,3.13,4.57.24.3.36.66.6.9.42.66.96,1.2,1.5,1.8.78.96,1.5,2.1,2.22,3.13l4.93,6.79c1.14,1.62,1.92,2.71,3.31,4.27,0-1.68.06-3.31.12-4.93,0-.6.06-1.2.06-1.8,0-.96-.12-1.92-.12-2.89,0-.84.18-1.68.24-2.53.06-.66,0-1.26,0-1.92,0-1.68.06-3.43.12-5.17,0-.18.06-.42.06-.66-.06-4.69-.06-9.38-.06-14.01,0-.42-.06-1.08.48-1.08,1.08,0,.9,1.62.9,2.34Zm3.54.21c0-1.89,0-3.84-.31-5.73-.13-.69-.75-.88-1.38-.88-.5,0-1.07.19-1.64.19-.63,0-1.2-.13-1.82-.13-.94,0-2.45.19-2.58,1.38-.19,1.82-.19,3.71-.25,5.54,0,.5-.06,1.01-.06,1.51s.19.94.19,1.45c0,.63-.25,1.2-.25,1.89,0,2.2.19,4.47.19,6.67,0,1.26.19,2.52.19,3.78,0,.57-.13,1.13-.13,1.7,0,.5.13,1.01.13,1.45.06,1.64.06,3.27.06,4.91,0,.25-.06.5-.06.76-.69-.44-2.64-3.27-3.27-4.09-1.51-1.89-3.84-4.66-4.78-6.73-.31-.63-.75-1.13-1.13-1.64-1.26-1.89-2.58-3.78-3.77-5.66-.94-1.45-1.95-2.89-3.02-4.22-.38-.5-.82-.94-1.13-1.45-1.26-1.89-2.39-3.9-3.65-5.79-.44-.69-.82-.69-1.57-.69-.82,0-1.7-.13-2.52-.13-1.82,0-2.26.82-2.26,2.52,0,2.39.25,4.78.25,7.11,0,.76-.13,1.45-.13,2.2,0,2.08.19,4.22.25,6.35.06,1.01.06,2.01.06,3.02.06.63.13,1.26.13,1.89,0,.44-.06.94-.06,1.38,0,.76.06,1.45.06,2.2,0,2.64-.19,5.29-.19,7.93s.06,5.1.25,7.68c0,.82.38,1.26,1.26,1.38.82.06,1.57.13,2.39.13,1.51,0,3.27-.06,3.27-1.95v-1.39s1.06-1.63,1.06-2.42c0-1.21.12-3.57.12-3.57,0,0,.06-4.65.06-6.99,0-2.94-.18-5.82-.18-8.77,0-.3.06-.54.12-.84l.18-.06c.96,1.26,1.92,2.58,2.82,3.9.54.78,1.02,1.68,1.62,2.52.72.9,1.5,1.8,2.16,2.76,1.62,2.28,3.06,4.68,4.8,6.84,1.14,1.5,2.28,2.94,3.24,4.56.12.18.24.36.48.48.72.36,1.02,1.14,1.38,1.86.54,1.08,1.44,1.62,2.64,1.74,1.56.18,3.12.24,4.68.24.72,0,1.14-.3,1.32-.96.54-1.86.48-3.6.54-5.52,0-.6.06-1.26.06-1.86,0-3.9-.13-7.63-.13-11.72,0-.44-.06-.94-.06-1.45,0-.44.13-.94.19-1.45.19-4.15.06-8.24.06-12.39,0-.5.13-.94.13-1.45Zm-44.83,13.43c0,1.87,0,3.81-.12,5.68-.06,1.15.06,2.3-.12,3.51l-.54,3.87c-.18.91-.67,1.51-.85,2.24-.3,1.09-.91,1.94-1.69,2.78-1.63,1.81-4.35,2.42-6.71,2.42-.91,0-1.81-.12-2.66-.3-1.57-.42-3.39-.85-4.53-2.12-.73-.85-1.39-1.69-1.63-2.78-.18-.73-.67-1.33-.85-2.24-.24-1.21-.36-2.48-.54-3.69-.42-3.08-.6-6.05-.6-9.13,0-1.94.12-3.87.12-5.81,0-.79-.06-1.57-.06-2.36,0-1.21.12-2.48.06-3.75,0-1.15-.06-2.36-.06-3.51,0-.48,0-.67.48-.67.36,0,.67.18.67.54.06.85-.06,5.87.12,6.17-.12.54-.12,1.15-.12,1.75,0,2.84.12,5.68.12,8.53,0,1.51-.12,3.2,0,4.72.24,2.3.6,4.54.97,6.77.24,1.45.79,2.42,1.45,3.69.3.48,1.03,1.03,1.45,1.39.67.6,1.33,1.21,2.3,1.33,1.09.18,2.18.24,3.26.24s2.18-.06,3.26-.24c.91-.12,1.57-.73,2.3-1.33,3.08-2.72,3.33-9.49,3.33-13.36,0-1.15.06-2.24.06-3.39,0-2.24-.18-4.47-.18-6.71v-1.87c0-.54,0-1.15-.18-1.69.36-2,0-4.17.18-6.17,0-.42.3-.54.67-.54.42,0,.48.18.48.6,0,1.21-.06,2.36-.06,3.57-.06,1.21.06,2.48.06,3.75,0,.73-.06,1.51-.06,2.3,0,1.94.24,3.87.24,5.81Zm2.21-2.84v-3.81c0-1.75-.24-3.57-.24-5.32,0-.97.06-2,.06-2.96,0-.85-.12-1.75-.18-2.6-.12-1.45-3.08-1.39-4.11-1.39-2.36,0-2.84,0-2.84,2.54,0,1.57.12,3.08.12,4.66,0,.79-.06,1.57-.06,2.36,0,3.93.42,7.8.42,11.73,0,.97-.12,2-.12,3.02,0,.67.06,1.33.06,2,0,1.39-.12,2.72-.42,4.05-.48,1.81-.67,3.57-2.36,4.72-.6.36-1.33.42-2,.6-.42.06-.79.12-1.21.12-2.48,0-4.84-1.51-5.44-3.99-.54-2.18-1.03-4.47-1.03-6.71,0-.42.06-.85.06-1.21,0-2.36-.24-4.72-.24-7.01,0-.6.18-1.21.18-1.75,0-.6-.18-1.15-.18-1.75s.18-1.21.18-1.81c0-.36-.06-.79-.06-1.21,0-1.03.06-2,.06-3.02,0-1.87-.18-4.23-.36-6.11,0-.42-.3-.67-.73-.85-.79-.24-2.06-.18-2.96-.18-2.84,0-3.14-.18-3.14,2.78,0,2.42.24,4.78.24,7.2,0,4.35.24,8.77.3,13.12.06,1.94-.06,6.47.3,8.16.73,3.57,1.81,6.65,4.9,8.83.67.54,1.39.97,2.24,1.27,1.75.48,3.57.97,5.44.97,1.27,0,2.24-.42,3.45-.54,1.09-.06,2.18-.12,3.08-.73.73-.48,2.06-1.15,2.66-1.81.54-.6,1.21-1.45,1.63-2.18l.12-.18c.42-1.15.54-1.45,1.21-2.48.06-.06.12-.18.12-.24.42-1.94.3-3.75.48-5.62.12-1.27.36-2.48.36-3.75,0-.79-.12-1.63-.12-2.42,0-1.15.12-2.36.12-3.51,0-.36-.12-.73-.12-1.09,0-.6.12-1.27.12-1.87Zm-36.99-12.72c0,.35-.82.41-1.05.41-2.69,0-5.32-.06-8.01-.06-1.23,0-2.46-.12-3.74-.12-1.99,0-4.03.18-6.08.29-.06,1.11-.18,2.28-.18,3.45,0,.88.06,1.81.06,2.69,0,2.51.06,5.03.18,7.54.58,0,1.17.06,1.7.06.99,0,1.99-.18,2.98-.18.35,0,.7.06.99.06.18,0,.29-.12.47-.12s.41.12.58.12h1.4c.29,0,.53-.12.76-.12,2.81-.29,5.67-.18,8.48-.18.41,0,.76.12.76.58,0,.7-1.05.7-1.58.7-.94,0-1.93-.12-2.92-.12-1.17,0-2.4.18-3.63.23-1.75.06-3.57,0-5.38,0-1.52,0-3.1.18-4.62.23-.06.88-.12,1.64-.12,2.51,0,1.52-.18,3.04-.18,4.56,0,.47.12.94.12,1.4,0,.35-.18.7-.18,1.05,0,.23.12.47.12.64,0,.23-.06.41-.06.58,0,2.63.12,5.2.12,7.84,0,.35-.06,1.11-.58,1.11-.06,0-.18,0-.29-.06-.41-.18-.29-2.63-.29-3.16,0-1.99.12-4.04.12-6.02,0-.41-.12-.82-.12-1.23,0-1.4.18-2.81.18-4.21,0-1.29-.06-2.51-.06-3.8,0-1.11.06-2.16.06-3.28,0-1.64-.12-3.27-.12-4.91,0-2.22.12-4.44.12-6.67,0-.47-.06-.94-.06-1.46,0-.23,0-.53.12-.7.41-.47,5.09-.47,5.91-.47.99,0,1.99.12,2.92.12,3.45,0,6.96-.12,10.41-.18.29,0,.7.53.7.82Zm2.6-1.73c0-1.15-.77-2-1.9-2-.89,0-1.84.18-2.73.18-.71,0-1.43-.12-2.14-.3-.3-.06-.59.06-.95.06-.59,0-1.19-.12-1.78-.12-.36,0-.71,0-1.07.12-.59.24-1.25.18-1.9.18-2.91.18-5.82.06-8.74.18-1.13.06-2.26.12-3.33.12-.42,0-.89.12-1.01.55-.12.42-.24,6.37-.24,7.28,0,1.58.06,3.16.06,4.73v5.22c0,1.21-.06,2.43-.06,3.64,0,.55.12,1.03.12,1.52,0,.97-.24,1.94-.24,2.91,0,.73.18,1.4.18,2.12,0,1.4.12,2.79.12,4.19,0,1.03-.18,2-.24,3.03,0,.55.06,1.03.06,1.58,0,.49-.12,2,.06,2.37.18.49.12.79.12,1.27,0,.3.24,1.4.53,1.52.48.12,1.07.3,1.6.3.12,0,.3,0,.42-.06.95-.24,1.72-.24,2.67-.24.53,0,1.31.12,1.43-.61.12-.42.24-.91.24-1.33,0-.67-.06-1.27-.06-1.94,0-.61.24-1.27.24-1.82,0-1.46.06-3.03-.3-4.49-.06-.36-.06-.73-.06-1.15,0-.67.06-1.4.12-2.06.06-2,0-4,.24-6.01.06-.61.42-.73.95-.73.42,0,.83.12,1.31.12,1.43,0,2.85-.3,4.28-.3.95,0,1.9.3,2.67.3.83,0,1.66-.18,2.5-.18.65,0,1.37.06,2.08.06.77,0,1.55-.24,2.38-.3.89-.06,1.07-.24,1.07-1.15,0-1.27.18-2.49.18-3.76,0-.24-.06-.49-.06-.73-.06-.67-.3-.85-.89-.85-2.14-.06-4.28-.12-6.36-.12-.77,0-1.6.18-2.38.18-1.07,0-2.14-.12-3.21-.12-.89,0-1.72.12-2.62.24h-.36c-1.43,0-1.66-.18-1.66-1.7v-2.55c0-1.46.06-2.85.06-4.25,0-.42.12-.61.53-.61.53,0,1.01.06,1.49.06.65,0,1.31-.12,1.96-.12h1.55c1.19,0,2.38,0,3.51-.06.83,0,1.66-.12,2.5-.12s1.66.18,2.5.18c.59,0,1.19-.12,1.84-.12,1.01,0,2.5.06,2.62-1.33.06-.97.12-2.06.12-2.97Z"/>
  <path id="Time" class="cls-4" d="m357.02,271.06c0,.31-.18.37-.48.37-2.48.12-5.02.18-7.56.18-.48,0-1.03-.06-1.51-.06-1.45,0-2.84.06-4.23.06-.66,0-1.27-.12-1.93-.12-1.63,0-3.2.12-4.84.12-1.03,0-1.51-.43-1.57-1.41-.12-2.14-.06-4.65-.06-6.85-.06-1.47-.18-2.94-.18-4.34,0-.43.06-.86.06-1.22,0-1.28-.06-2.51-.06-3.79,0-.67.06-1.41.06-2.14.06-1.35,0-2.69,0-4.04,0-2.51-.3-4.96-.3-7.46,0-.24.06-.49.06-.73,0-1.28-.18-2.57-.12-3.92,0-.24-.06-.49-.06-.73,0-1.16,1.09-1.1,1.87-1.1,1.57,0,3.08-.18,4.59-.18.67,0,1.27.12,1.93.12,2.6,0,5.26-.18,7.86-.18.54,0,1.03.12,1.51.12h2.12c.6,0,1.57-.18,1.57.73,0,.37-1.81.37-2.12.37-.66,0-1.33-.12-1.99-.12-3.08,0-6.17.18-9.19.18-.54,0-1.09-.06-1.63-.06-1.75,0-3.57.18-5.26.31l-.06,2.2c0,1.84.24,3.67.24,5.45,0,.31-.06.67-.06.98,0,.8.12,1.65.12,2.45v2.13s1.05.06,1.77-.86h5.99c.97.98,1.87.86,2.78.86.48,0,.91.06,1.33.06.67,0,1.87.22,1.87.22h2.75c.16,0,.33.33.33.49,0,.22-.22.38-.38.38-.49.11-1.09.11-1.64.11-1.58.11-3.16.16-4.74.16h-1.96c-1.36-.05-2.78.11-4.14.11-.55,0-1.09-.11-1.69-.11h-1.69c-.11,1.15-.11,2.29-.11,3.38,0,.76.11,1.47.11,2.24,0,.98-.11,1.96-.11,2.94,0,.87.22,1.69.22,2.56,0,1.96-.11,3.87-.11,5.84,0,.33,0,.82.22,1.09.49.55,3.16.38,3.93.38v2.37c2.72-.12,5.38-.18,8.1-.18,2.36,0,4.72-.06,7.07-.06.48,0,1.33.06,1.33.73Zm2.28-.71c0-2.12-.42-2.73-2.54-2.73-1.76,0-3.51.06-5.27.24-2.36.18-4.73.18-7.09.18-.85,0-1.64-.18-2.42-.18-1.09,0-2.18.18-3.27.18-.55,0-.55-.3-.55-.79v-2.12c0-2.18.24-4.3.24-6.48,0-1.7-.12-3.39-.12-5.15,0-.91.3-1.03,1.21-1.03,1.39-.06,2.79-.06,4.18-.06,1.39-.06,2.85-.18,4.24-.18.73,0,1.51.06,2.24.06,1.58,0,3.09-.12,4.67-.18.36,0,.61-.12.79-.48.3-.55.36-.79.36-1.39,0-.97,0-1.94-.06-2.91-.06-1.03-1.88-1.03-2.67-1.03-1.39,0-2.85.12-4.24.12-2.61,0-5.21.12-7.76.12-.91,0-1.82-.06-2.73-.06-.61,0-.55-.36-.55-.85,0-.91.06-1.82.06-2.73h-.06c.12-1.58.12-3.15.24-4.79,0-.55.06-.55.61-.67,1.94-.24,3.88-.3,5.82-.3,3.21,0,6.42.18,9.63.18,1.33,0,3.7.18,3.7-1.76,0-.36-.06-.67-.06-.97,0-.61.12-1.27.12-1.88,0-.91-.3-1.15-1.21-1.21-1.21,0-2.48.06-3.7.06-.61,0-1.21-.18-1.88-.18-1.39,0-2.85.18-4.3.18-.79,0-1.64-.12-2.42-.12-2.42,0-4.85.06-7.27.06-1.39,0-2.79.18-4.18.18-1.82,0-2.24,1.82-2.24,3.27,0,.3.12.61.12.85,0,.42-.12.85-.12,1.27,0,2.06.42,4.06.42,6.06,0,1.15-.12,2.3-.12,3.45,0,.85.06,1.64.06,2.42.06,3.39.18,6.85.18,10.24,0,.73-.12,1.45-.12,2.24,0,1.45.24,2.97.24,4.48,0,.42-.3.85-.3,1.33,0,.91.24,1.82.24,2.73s-.24,1.82-.24,2.67c0,1.03.61,1.33,1.51,1.33,1.76,0,3.51-.12,5.27-.12,3.27-.06,6.54-.06,9.82-.06,1.39,0,2.73-.12,4.06-.12.91,0,1.76.18,2.61.18,1.15,0,2.18-.24,3.27-.24,1.58,0,1.58-2.18,1.58-3.33Zm-40.05-.42c0,.54-.18.85-.79.85-.3,0-.24-.18-.3-.48-.24-.73-.18-1.45-.24-2.24-.18-1.63-.24-3.33-.48-5.02l-.24-1.39c-.24-2-.18-4.05-.6-5.99-.18-.73-.12-1.45-.24-2.18-.18-1.69-.24-3.39-.42-5.02l-.24-1.45c-.36-2.3-.67-7.55-.67-7.55h.06s-.06-1.76-.3-2.85c-.67,1.15-1.27,2.48-2,3.63-.3.42-.54.85-.79,1.33l-1.03,2.36c-.6,1.45-1.51,2.9-2.3,4.29-1.09,2.12-2.12,4.23-3.14,6.41-.79,1.63-1.51,3.33-2.18,5.02-.18.42-.42,1.33-1.03,1.33-.12,0-.18-.06-.3-.06-.73-.24-1.15-1.27-1.51-1.87-.67-1.27-1.27-2.6-1.87-3.81-.24-.42-.48-.85-.79-1.21-.6-.85-2.54-4.72-2.96-5.74-.3-.79-.91-1.51-1.33-2.3-1.57-2.84-3.08-5.81-4.6-8.77-.12.73-.12,1.45-.18,2.12-.24,1.39-.3,2.78-.48,4.17-.12,1.27-.73,4.66-.67,5.68,0,.36.06.73.06,1.09,0,.42-.12.85-.23,1.33v.73c.1.48.04.97-.02,1.39-.12.91-.18,1.75-.18,2.66,0,.73-.12,1.51-.24,2.3,0,.42.06.85.06,1.33,0,.18-.06.36-.06.54-.18,1.45-.06,2.9-.36,4.35-.06.06-.06.18-.06.3,0,.24.06.54.06.85,0,.85-.12,1.63-.12,2.48,0,.42,0,.97-.12,1.39-.06.36-.48.3-.79.42-.06,0-.12.06-.24.06s-.12-.36-.12-.42c0-.85.12-1.69.18-2.48.12-1.57.24-3.2.24-4.78,0-.85-.59-2.48-.59-2.48v-1.81c.06-1.17.25-2.27.37-3.44.06-.74,0-1.54.06-2.27.25-2.95.43-5.84.74-8.73.25-2.4.31-4.85.55-7.25.06-.49.06-1.04.18-1.54,0-.25.12-.55.49-.55.74,0,1.23.74,1.47,1.35.8,1.84,1.78,3.56,2.83,5.29.8,1.23,1.41,2.64,2.09,3.93,1.78,3.5,3.56,7.07,5.53,10.45.74,1.23,1.29,2.52,2.03,3.75l.49-.98c1.6-3.07,3.2-6.27,4.73-9.4.74-1.54,1.35-3.13,2.21-4.67,1.11-1.78,1.9-3.75,3.01-5.59l.55-.8c.43-.86.8-1.78,1.17-2.64.18-.43.37-1.11.98-1.11.49,0,.86.49.92.92.12,1.72-.06,3.5.18,5.22.25,1.66.31,3.32.55,4.98.18,1.41.37,2.77.49,4.12.06.31.18.55.18.86v.97s.32.3.38.42c.18.85.24,1.69.3,2.54,0,1.39.18,2.84.36,4.23l.12,1.51.54,3.99c.06.3.18.54-.53.85v1.51c.95.91,1.14,2.66,1.14,3.57Zm3.08,2.04c0-1.63-.3-3.39-.54-5.02-.36-2.06-.3-4.17-.48-6.29-.18-2-.3-4.05-.54-6.05-.18-1.03-.24-2-.24-3.08,0-2-.48-3.87-.73-5.87-.36-2.9-.42-5.81-.91-8.71-.24-1.75-.54-3.51-.73-5.32-.06-.85-.54-1.33-1.45-1.33-1.33,0-2.66-.12-3.45,1.21-1.27,2.3-2.42,4.66-3.69,6.95-.36.67-.85,1.21-1.21,1.87-1.03,2.12-5.14,11.13-6.41,12.52-.85-.91-1.33-2.12-2-3.14-.36-.48-.73-1.03-1.03-1.57-1.03-1.81-1.63-3.87-2.66-5.74-1.09-2.06-2.36-3.93-3.39-6.05-.24-.36-.36-.85-.48-1.27-.54-1.39-1.51-2.72-2.36-3.93-.42-.54-1.33-.73-1.93-.73-1.15,0-2.72.24-2.84,1.57-.12,1.33-.18,2.66-.24,3.99-.06.97-.06,1.94-.24,2.9-.24,1.15-.3,2.3-.36,3.51-.06.73-.06,1.45-.18,2.24-.18,1.57-.54,3.14-.54,4.72,0,.82-.11,1.65-.12,2.47,0,1.09.02,2.19-.04,3.28-.07,1.45-.12,2.9-.33,4.34-.06.6-.18,1.15-.18,1.75-.12,3.45-.67,6.89-.67,10.34,0,1.81,1.33,1.63,2.72,1.63,2,0,4.05.3,4.05-2.42,0-.18-.06-.42-.06-.67,0-.42.24-.79.3-1.21.12-1.51.18-3.08.18-4.6,0-.91.18-1.81.18-2.72,0-1.81.42-4.78.6-6.65.24-2.36.42-4.72.79-7.08l.18-.06c1.57,1.81,3.14,5.93,4.35,8.16.73,1.45,5.08,10.1,6.59,10.1.36,0,.67-.3.91-.6.91-1.21,1.51-2.66,2.24-3.99.73-1.51,1.57-3.02,2.3-4.54.54-1.15.97-2.3,1.69-3.33l.36-.73c.85-1.81,1.69-3.63,2.66-5.38h.18c.54,2.78.91,5.5.91,8.34,0,.97.24,1.81.42,2.78.24,1.45.12,2.9.36,4.35.18,1.39.12,2.72.24,4.05,0,.54.42.91.54,1.69.06.91.18,1.87.3,2.78.18.97.36,1.51,1.39,1.75.24.06.42.36.67.36.3,0,1.03-.42,1.81-.42,1.09,0,3.08.36,3.08-1.21Zm-52-5.28c0,.91-.06,1.81,0,2.72,0,.24-.3.73-.6.73-.91,0-.54-3.27-.54-3.93,0-1.87-.18-3.75-.18-5.62,0-1.15.06-2.3.06-3.45,0-1.33-.06-2.72-.06-4.05,0-.48.06-.91.06-1.39,0-1.51-.12-2.96-.12-4.47-.06-2.06,0-4.11,0-6.17,0-1.33-.12-2.66-.12-3.93,0-1.09.06-2.12.06-3.2,0-.3,0-.36.3-.36,1.03,0,.79,1.81.79,2.48h-.06c.06,1.27,0,2.48,0,3.69s.12,2.36.12,3.57c0,3.08.12,6.23.12,9.31,0,1.69-.12,3.45-.12,5.14,0,1.57.24,3.14.24,4.78-.06.54-.06,1.09-.06,1.63,0,.85.12,1.69.12,2.54Zm2.4,1.25c0-1.39-.11-2.78-.11-4.11,0-.36.05-.73.05-1.03,0-1.09-.33-2.12-.33-3.2,0-.48.27-.91.27-1.39,0-.85-.27-1.69-.27-2.54,0-.54.05-1.15.05-1.69,0-1.63-.33-3.2-.33-4.84,0-.6.05-1.21.05-1.87,0-1.33.16-2.66.16-3.93,0-1.51-.16-3.02-.16-4.54,0-1.87.06-3.96.06-5.95,0-1.37-.43-1.68-1.74-1.92-.12-.06-.25-.06-.31-.06-1.18,0-3.04-.06-4.09.19-.68.19-.99.43-.99,1.18,0,.37.06.81.06,1.24l.06,2.54-.06,3.41c0,.62-.06,1.18-.06,1.8,0,1.49.25,2.98.25,4.47s-.12,3.16-.12,4.78c0,.81-.12,1.55-.12,2.36v7.86l1.18,2.48v9.01c.05.85.38,1.27,1.15,1.33,1.26.12,2.57.12,3.82.12.71,0,1.26-.73,1.26-1.45.05-1.15.05-2.18.22-3.33.05-.3.05-.6.05-.91Zm-17.46-33.5c0,.67-.12.73-.79.73-1.03,0-3.2-.28-3.2-.28,0,0-4.98-.06-7.2-.06-.12,0-.24,0-.36.06l-.06.12c-.06.3-.12.6-.12.96,0,.9.12,1.86.12,2.82,0,.48-.12.9-.12,1.38,0,1.68.24,3.42.24,5.17,0,.96-.12,1.92-.12,2.88,0,3.24.18,6.49.18,9.67v1.26c0,.6-.18,1.14-.18,1.74,0,.36.06.66.06,1.02.12,2.64.12,5.35.12,8.05,0,.72.12,1.2-.72,1.2-.78,0-.6-.12-.6-.78h.14l1.18-7.77v-10.95c-.96-.85-.9-1.69-.9-2.6,0-.79-.06-1.57-.06-2.42,0-.42.06-.85.06-1.27,0-.54-.06-1.15-.06-1.75-.12-1.33-.12-2.66-.12-3.99,0-.85,0-1.69-.06-2.54-.06-.67-.18-.97-.18-1.87,0-.36-1.27-.24-1.57-.24-1.75,0-3.45.12-5.2.12-1.45,0-2.96,0-4.41-.06-.36-.06-.48-.24-.48-.54,0-.73.3-.73.91-.73,2.06,0,4.05.18,6.11.18,1.39,0,2.84-.06,4.23-.06s2.9.12,4.35.12c1.93,0,3.87-.18,5.8-.18.85,0,1.87-.06,2.72.12.24.06.3.18.3.48Zm1.98-.64c0-.97.06-1.95-1.17-2.12-3.33-.4-6.78-.17-10.11-.17-.7,0-1.4-.11-2.05-.11s-1.29.11-1.99.11c-.88,0-1.75-.06-2.69-.06-2.28,0-4.56.06-6.84.06-.35,0-.76-.11-1.17-.11-1.17,0-1.34,1.15-1.34,2.06,0,1.09.06,2.12.12,3.21.06.92.35,1.37,1.34,1.43,2.16.06,4.27.06,6.37.06.53,0,1.11.06,1.64.06.64.06.7.17.7.74,0,.97.23,2,.23,3.03,0,.4-.12.8-.12,1.2,0,1.15.18,2.35.18,3.49.06,1.72.06,3.44.06,5.1,0,.97-.12,1.89-.12,2.81,0,1.66.06,3.38.06,5.04.06,1.15-.06,2.35-.06,3.49,0,.92.12,1.83.12,2.75,0,.57-.12,1.2-.12,1.78,0,.92.12,1.83.12,2.75.12,1.2.99,1.15,1.99,1.2.88,0,1.7.06,2.51.06,1.75,0,2.51-.4,2.51-2.23,0-1.15-.18-2.23-.18-3.38,0-1.66.12-3.32.12-4.98s-.06-3.38-.06-5.04c0-1.32-.06-2.58-.06-3.89,0-1.09.12-2.23.12-3.38,0-.8-.12-1.66-.12-2.46,0-.4-.06-.74-.06-1.15,0-.74.06-1.49.06-2.29,0-1.2-.06-2.46-.06-3.66,0-.63,0-.92.7-.92,1.29,0,2.63.06,3.92.06h3.57c.76,0,1.34-.06,1.58-.86.29-1.2.29-2.46.29-3.66Z"/>
  <path id="Means" class="cls-4" d="m576.76,260.62c0,1.27-.48,2.42-.97,3.51l-1.09,2.12c-.73,1.39-2.72,2.48-3.99,3.33-.54.36-2.18.85-2.84.97-.85.12-1.87.12-2.78.12-.6,0-1.27-.18-1.93-.3-3.39-.54-4.72-.79-6.95-3.57-.79-.91-1.39-1.87-1.75-3.02-.24-.67-.54-1.39-.54-2.12,0-.24.24-.54.48-.54.3.24.67.24.73.67.54,2.54,2.18,5.62,4.78,6.53l1.15.3c.54.12,1.09.42,1.63.48,1.15.12,2.36.24,3.57.24,1.27,0,3.14-.18,4.17-1.03.79-.79,2.36-1.51,3.14-2.66.73-1.15,1.45-2.3,1.63-3.69.12-.79.48-1.69.48-2.54,0-.42-.12-.79-.3-1.21-.48-1.39-.6-1.57-1.57-2.78-2.12-2.54-7.62-3.75-10.64-4.29-.91-.18-2-.85-2.84-1.21-1.75-.79-3.93-1.63-4.84-3.51-.54-1.09-.97-2.36-.97-3.57,0-.6.06-1.21.12-1.75,0-.3.18-.54.18-.73,0-1.09.67-2,1.09-2.9.48-.91.91-1.75,1.87-2.3.36-.24.67-.54,1.03-.73.12-.12.24-.12.36-.18,1.69-.54,3.39-1.27,5.2-1.27.42,0,.85.06,1.27.12,1.57.3,4.29.6,5.5,1.63,2.12,1.81,1.93,1.33,3.26,3.99.18.36.48,1.03.48,1.45,0,.36-.06.73-.48.73-.3,0-.54-.12-.67-.36-.73-1.75-.6-2.54-2.24-3.87-.3-.24-.54-.6-.91-.85-1.45-.97-4.66-1.69-6.35-1.69s-3.93.79-5.32,1.69c-1.03.6-1.69,1.57-2.24,2.66-.06.12-.42,1.03-.42,1.09,0,.67-.3,1.15-.36,1.75l-.12,1.57h.06c.12,1.27.24,2.72,1.21,3.69.36.36.73.85,1.27,1.09.48.24.97.67,1.51.85,1.33.54,2.72,1.15,4.05,1.51,1.33.3,2.66.6,3.99.97,1.21.36,2.54.79,3.63,1.39.36.18.79.24,1.15.42.48.24,1.75,1.45,2.18,1.87.24.24.79.73.97.97.91,1.51.97,3.27.97,4.96Zm3.02.3c0-1.51-.54-5.44-1.51-6.53-.73-.85-1.51-1.63-2.24-2.42-2-2-4.47-2.3-7.01-3.2-.48-.18-1.09-.18-1.63-.3-1.09-.36-2.18-.79-3.33-1.15-1.63-.42-3.2-1.21-4.6-2.18-.91-.6-1.51-1.57-1.51-2.66,0-1.57,1.51-3.45,2.6-4.54l.24-.18c.85-.36,1.87-.67,2.78-.67,1.03,0,2.18.3,3.2.48,1.39.24,2.06,1.03,3.14,1.81.36.36.73.73.97,1.15l.91,1.94c.36.85.85.97,1.69.97.97,0,1.87-.18,2.78-.18,1.33,0,2.12.36,2.12-1.45,0-1.45-.91-3.2-1.57-4.54-.18-.36-.42-.67-.67-1.03-.91-1.15-1.87-2.6-3.2-3.27-1.03-.54-2.12-1.09-3.2-1.57-.42-.18-4.66-.67-5.26-.67-2.72,0-4.9.67-7.13,2.12-.73.42-1.39.85-2,1.39-2.3,2-3.26,5.74-3.26,8.71,0,1.39.36,2.72.67,4.05.3,1.51,1.09,2.66,2.36,3.57,1.21.97,2.6,1.81,4.05,2.3,2.72.97,5.56,1.87,8.34,2.42,1.03.24,1.93.54,2.84,1.03,1.39.79,2.3,2.24,2.3,3.81,0,.24-.06.54-.06.79-.18.85-.54,2-.97,2.72-.12.3-.54.6-.79.85-1.27,1.39-3.33,2.06-5.2,2.06-2.48,0-5.02-.54-6.59-2.72-.73-.97-1.27-2-1.51-3.2l-.3-1.33c-.24-.79-.85-.91-1.57-.91-1.39,0-2.78.12-4.11.12-.48.06-.85.18-1.09.6,0,1.75.6,4.96,1.33,6.59.18.42.48.85.73,1.21.3.54.67,1.27,1.09,1.69,1.27,1.21,4.17,2.96,5.8,3.63.48.18.91.36,1.33.67.6.42,2.48.48,3.33.54.18.06.48.18.67.18.91,0,1.69-.12,2.6-.3.73-.12,3.14-.97,3.39-.97.36,0,.48.12.91-.12.91-.48,1.93-1.03,2.78-1.63.73-.54,1.33-1.21,2-1.87,1.33-1.27,2.06-2.42,2.6-4.17.24-.97.79-2.66.79-3.63Zm-41.04-24.52c0,.78-.18,1.56-.18,2.34,0,.42.06.9.06,1.38,0,.36-.06.72-.06,1.08,0,.6.12,1.14.12,1.68,0,.36-.12.78-.12,1.14l.18,5.65c0,.6-.12,1.2-.18,1.8v5.35c0,2.53-.36,4.99-.36,7.52,0,1.32.06,2.59.06,3.91,0,.78-.12,1.44-.36,2.22-.12.54-.3.6-.84.6-.9,0-1.02-.6-1.44-1.26-2.77-4.15-5.71-8.12-8.72-12.15l-2.16-3.13-1.98-2.47c-.78-1.08-1.44-2.22-2.16-3.31-.18-.3-.54-.48-.78-.78-1.98-3.19-4.81-8.18-7.21-10.82.06.54-.06,1.08-.06,1.56,0,.9.18,1.74.18,2.65s-.12,1.86-.12,2.77c0,.84.12,1.74.12,2.59.06,2.34.12,4.69.12,7.03,0,1.62-.18,3.25-.18,4.87s-.06,3.25-.06,4.87c0,1.38.18,2.77.18,4.15,0,.78,0,1.5-.06,2.28,0,.42-.36.66-.72.66-.42,0-.3-.42-.36-.66-.18-2.04-.18-4.03-.18-6.01,0-2.16.06-4.33.06-6.49,0-4.63-.18-9.2-.18-13.83,0-1.08-.18-2.16-.18-3.25,0-1.32-.06-2.65-.06-3.91,0-.9-.12-1.56,1.08-1.56.54,0,1.02.36,1.26.84.42.9,1.08,1.44,1.62,2.22.48.66.72,1.56,1.14,2.28.12.18.3.3.42.42.42.42,1.62,2.47,1.92,3.07l.48.78c.72,1.02,1.56,2.04,2.22,3.07.9,1.62,2.04,3.13,3.13,4.57.24.3.36.66.6.9.42.66.96,1.2,1.5,1.8.78.96,1.5,2.1,2.22,3.13l4.93,6.79c1.14,1.62,1.92,2.71,3.31,4.27,0-1.68.06-3.31.12-4.93,0-.6.06-1.2.06-1.8,0-.96-.12-1.92-.12-2.89,0-.84.18-1.68.24-2.53.06-.66,0-1.26,0-1.92,0-1.68.06-3.43.12-5.17,0-.18.06-.42.06-.66-.06-4.69-.06-9.38-.06-14.01,0-.42-.06-1.08.48-1.08,1.08,0,.9,1.62.9,2.34Zm2.36.89c0-1.81,0-3.67-.3-5.48-.12-.66-.72-.84-1.32-.84-.48,0-1.02.18-1.56.18-.6,0-1.14-.12-1.75-.12-.9,0-2.35.18-2.47,1.32-.18,1.75-.18,3.55-.24,5.3,0,.48-.06.96-.06,1.44s.18.9.18,1.38c0,.6-.24,1.14-.24,1.81,0,2.11.18,4.27.18,6.38,0,1.2.18,2.41.18,3.61,0,.54-.12,1.08-.12,1.62,0,.48.12.96.12,1.38.06,1.56.06,3.13.06,4.69,0,.24-.06.48-.06.72-.66-.42-2.53-3.13-3.13-3.91-1.44-1.81-3.67-4.45-4.57-6.44-.3-.6-.72-1.08-1.08-1.56-1.2-1.81-2.47-3.61-3.61-5.42-.9-1.38-1.87-2.77-2.89-4.03-.36-.48-.78-.9-1.08-1.38-1.2-1.81-2.29-3.73-3.49-5.54-.42-.66-.78-.66-1.5-.66-.78,0-1.62-.12-2.41-.12-1.75,0-2.17.78-2.17,2.41,0,2.29.24,4.57.24,6.8,0,.72-.12,1.38-.12,2.11,0,1.99.18,4.03.24,6.08.06.96.06,1.93.06,2.89.06.6.12,1.2.12,1.81,0,.42-.06.9-.06,1.32,0,.72.06,1.38.06,2.11,0,2.53-.18,5.06-.18,7.58s.06,4.87.24,7.34c0,.78.36,1.2,1.2,1.32.78.06,1.5.12,2.29.12,1.44,0,3.13-.06,3.13-1.87v-.51s.1-1.63.1-2.42c0-1.21,1.07-3.57,1.07-3.57,0,0,.06-4.63.06-6.87,0-2.81-.17-5.56-.17-8.37,0-.29.06-.52.11-.8l.17-.06c.92,1.2,1.83,2.46,2.69,3.73.52.75.97,1.6,1.55,2.41.69.86,1.43,1.72,2.06,2.64,1.55,2.18,2.92,4.47,4.58,6.53,1.09,1.43,2.18,2.81,3.09,4.36.11.17.23.34.46.46.69.34.97,1.09,1.32,1.78.52,1.03,1.38,1.55,2.52,1.66,1.49.17,2.98.23,4.47.23.69,0,1.09-.29,1.26-.92.52-1.78.46-3.44.52-5.27,0-.57.06-1.2.06-1.78,0-3.73-.12-7.67-.12-11.58,0-.42-.06-.9-.06-1.38,0-.42.12-.9.18-1.38.18-3.97.06-7.88.06-11.86,0-.48.12-.9.12-1.38Zm-50.86,24.12c-.6.18-.97.24-1.63.24-2.06,0-4.17-.06-6.23-.18l-.06-.3c.48-1.45.79-2.9,1.27-4.29.12-.24.12-.54.12-.85.54-2.6,1.09-5.26,2.06-7.74.06-.18.24-.36.36-.48.6,2,1.21,4.05,1.75,6.11.6,2.06,1.45,3.99,1.93,6.11l.42,1.39Zm3.99,2.42c-.06-.85-.6-1.63-.85-2.48-.36-1.27-.73-2.6-1.15-3.87-.73-2.24-1.51-4.47-2.24-6.77-.36-1.21-.73-2.48-1.15-3.75-.24-.79-.3-1.63-.6-2.42-.73-2-1.45-3.99-2.12-5.99-.42,1.39-.97,2.66-1.39,4.05-.3,1.03-.48,2.06-.85,3.08-.36,1.03-.6,1.94-.79,2.96-.12.54-.42,1.09-.6,1.63-.18.79-.3,1.51-.42,2.24-.18.67-.36,1.27-.6,1.94-.36.97-.54,1.94-.79,2.96-.18.67-.36,1.03-.48,1.75-.12,1.21-1.03,3.33-1.03,4.41,0,.48.36.67.79.67,3.69.12,7.38.18,11.06.18,1.09,0,2.24-.12,3.39-.12l-.18-.48Zm3.08,6.17c0,.36-.12.6-.48.6-.3,0-.6-.12-.73-.3-.36-.6-.97-3.27-1.21-4.11-.18-.48-.48-.6-.91-.67-1.45-.18-2.9-.24-4.35-.24-1.33,0-2.72.12-4.05.12-2.06,0-4.11-.12-6.11-.12-1.03,0-1.09.54-1.33,1.39-.18.67-.85,4.17-1.27,4.17-.24,0-.91-.18-.91-.48,0-.24,1.09-3.87,1.09-4.05,1.21-4.11,2.24-8.28,3.45-12.4.18-.79.3-1.63.54-2.42.18-.73,1.39-4.96,1.39-5.08.54-1.15.79-2.42,1.15-3.63.18-.6.18-1.27.42-1.81.48-1.57.85-2.72,1.21-4.29.12-.42.3-.79.79-.79.85,0,1.15,1.27,1.15,1.94,0,.91,1.81,5.56,2.12,6.59.54,1.57,1.09,3.2,1.57,4.84.18.79.36,1.63.67,2.42.3.67.54,1.33.73,2.06.24.85.54,1.69.91,2.54.36,1.09.54,2.54.91,3.51.42.91.97,1.81,1.15,2.84.24,1.63,2.12,6.53,2.12,7.38Zm2.98,2.92c0-1.21-1.75-5.93-2.18-7.38-.6-1.81-1.03-3.63-1.63-5.44l-.97-2.84c-.3-1.15-2.96-10.46-2.96-10.88,0-.48-.3-.97-.48-1.39-.24-.73-.42-1.45-.6-2.24-.91-2.84-1.87-5.74-2.48-8.71-.12-.73-.48-1.45-.91-2.12-.19-.3-.54-.48-.91-.48-.66,0-1.39.12-2.05.12-1.21.06-1.33.12-1.69,1.27-.63,1.88-.77,3.69-1.83,5.41-.76,1.24-1.29,2.63-1.18,4.07.11,1.46-.58,2.49-.92,3.76-.12.36-.06.67-.12,1.03-.24,1.27-1.09,3.45-1.45,4.84-.24.91-.06,1.63-.54,2.54-.48.85-.67,2.36-.97,3.39-.73,2.18-1.45,4.47-1.93,6.71-.18.79-.36,1.51-.73,2.24-.12.3-1.51,5.93-1.51,6.17,0,.36.18.48.48.6.67.18,3.02.36,3.75.36.6,0,1.21-.06,1.81-.18.48-.12.67-.36.79-.79.36-1.33.6-2.66.97-3.93.18-.85.36-1.03,1.21-1.03.67,0,1.27.06,1.93.06.42,0,.85.12,1.27.12,1.03,0,2.12-.18,3.14-.18,1.33,0,2.66.12,3.93.18.54.06.85.3.97.79.3,1.03.73,2.12.91,3.2.12.91.6,1.51,1.57,1.63h1.15v.06c1.09-.06,2.24-.12,3.33-.24.6,0,.85-.12.85-.73Zm-37.18-1.86c0,.31-.18.37-.48.37-2.48.12-5.02.18-7.56.18-.48,0-1.03-.06-1.51-.06-1.45,0-2.84.06-4.23.06-.67,0-1.27-.12-1.93-.12-1.63,0-3.2.12-4.84.12-1.03,0-1.51-.43-1.57-1.41-.12-2.14-.06-4.65-.06-6.85-.06-1.47-.18-2.94-.18-4.34,0-.43.06-.86.06-1.22,0-1.28-.06-2.51-.06-3.79,0-.67.06-1.41.06-2.14.06-1.35,0-2.69,0-4.04,0-2.51-.3-4.96-.3-7.46,0-.24.06-.49.06-.73,0-1.28-.18-2.57-.12-3.92,0-.24-.06-.49-.06-.73,0-1.16,1.09-1.1,1.87-1.1,1.57,0,3.08-.18,4.59-.18.67,0,1.27.12,1.93.12,2.6,0,5.26-.18,7.86-.18.54,0,1.03.12,1.51.12h2.12c.6,0,1.57-.18,1.57.73,0,.37-1.81.37-2.12.37-.67,0-1.33-.12-1.99-.12-3.08,0-6.17.18-9.19.18-.54,0-1.09-.06-1.63-.06-1.75,0-3.57.18-5.26.31l-.06,2.2c0,1.84.24,3.67.24,5.45,0,.31-.06.67-.06.98,0,.8.12,1.65.12,2.45v2.13s1.49.06,2.21-.86h5.99c.97.98,1.87.86,2.78.86.48,0,.91.06,1.33.06.67,0,1.87.22,1.87.22h2.31c.16,0,.33.33.33.49,0,.22-.22.38-.38.38-.49.11-1.09.11-1.64.11-1.58.11-3.16.16-4.74.16h-1.96c-1.36-.05-2.78.11-4.14.11-.55,0-1.09-.11-1.69-.11h-1.69c-.11,1.15-.11,2.29-.11,3.38,0,.76.11,1.47.11,2.24,0,.98-.11,1.96-.11,2.94,0,.87.22,1.69.22,2.56,0,1.96-.11,3.87-.11,5.84,0,.33,0,.82.22,1.09.49.55,3.16.38,3.93.38v2.37c2.72-.12,5.38-.18,8.1-.18,2.36,0,4.72-.06,7.07-.06.48,0,1.33.06,1.33.73Zm2.28-.71c0-2.12-.42-2.73-2.54-2.73-1.76,0-3.51.06-5.27.24-2.36.18-4.73.18-7.09.18-.85,0-1.64-.18-2.42-.18-1.09,0-2.18.18-3.27.18-.55,0-.55-.3-.55-.79v-2.12c0-2.18.24-4.3.24-6.48,0-1.7-.12-3.39-.12-5.15,0-.91.3-1.03,1.21-1.03,1.39-.06,2.79-.06,4.18-.06,1.39-.06,2.85-.18,4.24-.18.73,0,1.51.06,2.24.06,1.58,0,3.09-.12,4.67-.18.36,0,.61-.12.79-.48.3-.55.36-.79.36-1.39,0-.97,0-1.94-.06-2.91-.06-1.03-1.88-1.03-2.67-1.03-1.39,0-2.85.12-4.24.12-2.61,0-5.21.12-7.76.12-.91,0-1.82-.06-2.73-.06-.61,0-.55-.36-.55-.85,0-.91.06-1.82.06-2.73h-.06c.12-1.58.12-3.15.24-4.79,0-.55.06-.55.61-.67,1.94-.24,3.88-.3,5.82-.3,3.21,0,6.42.18,9.63.18,1.33,0,3.7.18,3.7-1.76,0-.36-.06-.67-.06-.97,0-.61.12-1.27.12-1.88,0-.91-.3-1.15-1.21-1.21-1.21,0-2.48.06-3.7.06-.61,0-1.21-.18-1.88-.18-1.39,0-2.85.18-4.3.18-.79,0-1.64-.12-2.42-.12-2.42,0-4.85.06-7.27.06-1.39,0-2.79.18-4.18.18-1.82,0-2.24,1.82-2.24,3.27,0,.3.12.61.12.85,0,.42-.12.85-.12,1.27,0,2.06.42,4.06.42,6.06,0,1.15-.12,2.3-.12,3.45,0,.85.06,1.64.06,2.42.06,3.39.18,6.85.18,10.24,0,.73-.12,1.45-.12,2.24,0,1.45.24,2.97.24,4.48,0,.42-.3.85-.3,1.33,0,.91.24,1.82.24,2.73s-.24,1.82-.24,2.67c0,1.03.61,1.33,1.51,1.33,1.76,0,3.51-.12,5.27-.12,3.27-.06,6.54-.06,9.82-.06,1.39,0,2.73-.12,4.06-.12.91,0,1.76.18,2.61.18,1.15,0,2.18-.24,3.27-.24,1.58,0,1.58-2.18,1.58-3.33Zm-39.61-.42c0,.54-.18.85-.79.85-.3,0-.24-.18-.3-.48-.24-.73-.18-1.45-.24-2.24-.18-1.63-.24-3.33-.48-5.02l-.24-1.39c-.24-2-.18-4.05-.6-5.99-.18-.73-.12-1.45-.24-2.18-.18-1.69-.24-3.39-.42-5.02l-.24-1.45c-.36-2.3-.67-7.55-.67-7.55h.06s-.06-1.76-.3-2.85c-.67,1.15-1.27,2.48-2,3.63-.3.42-.54.85-.79,1.33l-1.03,2.36c-.6,1.45-1.51,2.9-2.3,4.29-1.09,2.12-2.12,4.23-3.14,6.41-.79,1.63-1.51,3.33-2.18,5.02-.18.42-.42,1.33-1.03,1.33-.12,0-.18-.06-.3-.06-.73-.24-1.15-1.27-1.51-1.87-.67-1.27-1.27-2.6-1.87-3.81-.24-.42-.48-.85-.79-1.21-.6-.85-2.54-4.72-2.96-5.74-.3-.79-.91-1.51-1.33-2.3-1.57-2.84-3.08-5.81-4.6-8.77-.12.73-.12,1.45-.18,2.12-.24,1.39-.3,2.78-.48,4.17-.12,1.27-.73,4.66-.67,5.68,0,.36.06.73.06,1.09,0,.42-.12.85-.66,1.33v.73c.54.48.48.97.42,1.39-.12.91-.18,1.75-.18,2.66,0,.73-.12,1.51-.24,2.3,0,.42.06.85.06,1.33,0,.18-.06.36-.06.54-.18,1.45-.06,2.9-.36,4.35-.06.06-.06.18-.06.3,0,.24.06.54.06.85,0,.85-.12,1.63-.12,2.48,0,.42,0,.97-.12,1.39-.06.36-.48.3-.79.42-.06,0-.12.06-.24.06s-.12-.36-.12-.42c0-.85.12-1.69.18-2.48.12-1.57.24-3.2.24-4.78,0-.85.15-2.48.15-2.48v-1.81c.06-1.17.25-2.27.37-3.44.06-.74,0-1.54.06-2.27.25-2.95.43-5.84.74-8.73.25-2.4.31-4.85.55-7.25.06-.49.06-1.04.18-1.54,0-.25.12-.55.49-.55.74,0,1.23.74,1.47,1.35.8,1.84,1.78,3.56,2.83,5.29.8,1.23,1.41,2.64,2.09,3.93,1.78,3.5,3.56,7.07,5.53,10.45.74,1.23,1.29,2.52,2.03,3.75l.49-.98c1.6-3.07,3.2-6.27,4.73-9.4.74-1.54,1.35-3.13,2.21-4.67,1.11-1.78,1.9-3.75,3.01-5.59l.55-.8c.43-.86.8-1.78,1.17-2.64.18-.43.37-1.11.98-1.11.49,0,.86.49.92.92.12,1.72-.06,3.5.18,5.22.25,1.66.31,3.32.55,4.98.18,1.41.37,2.77.49,4.12.06.31.18.55.18.86v.97s-.42.3-.36.42c.18.85.24,1.69.3,2.54,0,1.39.18,2.84.36,4.23l.12,1.51.54,3.99c.06.3.18.54.21.85v1.51c.21.91.39,2.66.39,3.57Zm3.08,2.04c0-1.63-.3-3.39-.54-5.02-.36-2.06-.3-4.17-.48-6.29-.18-2-.3-4.05-.54-6.05-.18-1.03-.24-2-.24-3.08,0-2-.48-3.87-.73-5.87-.36-2.9-.42-5.81-.91-8.71-.24-1.75-.54-3.51-.73-5.32-.06-.85-.54-1.33-1.45-1.33-1.33,0-2.66-.12-3.45,1.21-1.27,2.3-2.42,4.66-3.69,6.95-.36.67-.85,1.21-1.21,1.87-1.03,2.12-5.14,11.13-6.41,12.52-.85-.91-1.33-2.12-2-3.14-.36-.48-.73-1.03-1.03-1.57-1.03-1.81-1.63-3.87-2.66-5.74-1.09-2.06-2.36-3.93-3.39-6.05-.24-.36-.36-.85-.48-1.27-.54-1.39-1.51-2.72-2.36-3.93-.42-.54-1.33-.73-1.93-.73-1.15,0-2.72.24-2.84,1.57-.12,1.33-.18,2.66-.24,3.99-.06.97-.06,1.94-.24,2.9-.24,1.15-.3,2.3-.36,3.51-.06.73-.06,1.45-.18,2.24-.18,1.57-.54,3.14-.54,4.72,0,.82-.11,1.65-.12,2.47,0,1.1.02,2.19-.03,3.28-.07,1.45-.12,2.9-.33,4.34-.06.6-.18,1.15-.18,1.75-.12,3.45-.67,6.89-.67,10.34,0,1.81,1.33,1.63,2.72,1.63,2,0,4.05.3,4.05-2.42,0-.18-.06-.42-.06-.67,0-.42.24-.79.3-1.21.12-1.51.18-3.08.18-4.6,0-.91.18-1.81.18-2.72,0-1.81.42-4.78.6-6.65.24-2.36.42-4.72.79-7.08l.18-.06c1.57,1.81,3.14,5.93,4.35,8.16.73,1.45,5.08,10.1,6.59,10.1.36,0,.67-.3.91-.6.91-1.21,1.51-2.66,2.24-3.99.73-1.51,1.57-3.02,2.3-4.54.54-1.15.97-2.3,1.69-3.33l.36-.73c.85-1.81,1.69-3.63,2.66-5.38h.18c.54,2.78.91,5.5.91,8.34,0,.97.24,1.81.42,2.78.24,1.45.12,2.9.36,4.35.18,1.39.12,2.72.24,4.05,0,.54.42.91.54,1.69.06.91.18,1.87.3,2.78.18.97.36,1.51,1.39,1.75.24.06.42.36.67.36.3,0,1.03-.42,1.81-.42,1.09,0,3.08.36,3.08-1.21Z"/>
  <path class="cls-4" d="m599.87,490.06c0,1.79-.68,3.41-1.36,4.94l-1.53,2.98c-1.02,1.96-3.83,3.49-5.62,4.69-.77.51-3.07,1.19-4,1.36-1.19.17-2.64.17-3.92.17-.85,0-1.79-.26-2.73-.43-4.77-.77-6.65-1.11-9.8-5.03-1.11-1.28-1.96-2.64-2.47-4.26-.34-.94-.77-1.96-.77-2.98,0-.34.34-.77.68-.77.43.34.94.34,1.02.94.77,3.58,3.07,7.93,6.73,9.2l1.62.43c.77.17,1.53.6,2.3.68,1.62.17,3.32.34,5.03.34,1.79,0,4.43-.26,5.88-1.45,1.11-1.11,3.32-2.13,4.43-3.75,1.02-1.62,2.05-3.24,2.3-5.2.17-1.11.68-2.39.68-3.58,0-.6-.17-1.11-.43-1.7-.68-1.96-.85-2.22-2.22-3.92-2.98-3.58-10.74-5.28-15-6.05-1.28-.26-2.81-1.19-4-1.7-2.47-1.11-5.54-2.3-6.82-4.94-.77-1.53-1.36-3.32-1.36-5.03,0-.85.09-1.7.17-2.47,0-.43.26-.77.26-1.02,0-1.53.94-2.81,1.53-4.09.68-1.28,1.28-2.47,2.64-3.24.51-.34.94-.77,1.45-1.02.17-.17.34-.17.51-.26,2.39-.77,4.77-1.79,7.33-1.79.6,0,1.19.09,1.79.17,2.22.43,6.05.85,7.75,2.3,2.98,2.56,2.73,1.87,4.6,5.62.26.51.68,1.45.68,2.05,0,.51-.09,1.02-.68,1.02-.43,0-.77-.17-.94-.51-1.02-2.47-.85-3.58-3.15-5.45-.43-.34-.77-.85-1.28-1.19-2.05-1.36-6.56-2.39-8.95-2.39s-5.54,1.11-7.5,2.39c-1.45.85-2.39,2.22-3.15,3.75-.09.17-.6,1.45-.6,1.53,0,.94-.43,1.62-.51,2.47l-.17,2.22h.09c.17,1.79.34,3.83,1.7,5.2.51.51,1.02,1.19,1.79,1.53.68.34,1.36.94,2.13,1.19,1.87.77,3.83,1.62,5.71,2.13,1.87.43,3.75.85,5.62,1.36,1.7.51,3.58,1.11,5.11,1.96.51.26,1.11.34,1.62.6.68.34,2.47,2.05,3.07,2.64.34.34,1.11,1.02,1.36,1.36,1.28,2.13,1.36,4.6,1.36,6.99Zm4.26.22c0-2.13-.77-7.67-2.13-9.2-1.02-1.19-2.13-2.3-3.15-3.41-2.81-2.81-6.31-3.24-9.88-4.52-.68-.26-1.53-.26-2.3-.43-1.53-.51-3.07-1.11-4.69-1.62-2.3-.6-4.52-1.7-6.48-3.07-1.28-.85-2.13-2.22-2.13-3.75,0-2.22,2.13-4.86,3.66-6.39l.34-.26c1.19-.51,2.64-.94,3.92-.94,1.45,0,3.07.43,4.52.68,1.96.34,2.9,1.45,4.43,2.56.51.51,1.02,1.02,1.36,1.62l1.28,2.73c.51,1.19,1.19,1.36,2.39,1.36,1.36,0,2.64-.26,3.92-.26,1.87,0,2.98.51,2.98-2.05,0-2.05-1.28-4.52-2.22-6.39-.26-.51-.6-.94-.94-1.45-1.28-1.62-2.64-3.66-4.52-4.6-1.45-.77-2.98-1.53-4.52-2.22-.6-.26-6.56-.94-7.41-.94-3.83,0-6.9.94-10.05,2.98-1.02.6-1.96,1.19-2.81,1.96-3.24,2.81-4.6,8.1-4.6,12.27,0,1.96.51,3.83.94,5.71.43,2.13,1.53,3.75,3.32,5.03,1.7,1.36,3.66,2.56,5.71,3.24,3.83,1.36,7.84,2.64,11.76,3.41,1.45.34,2.73.77,4,1.45,1.96,1.11,3.24,3.15,3.24,5.37,0,.34-.09.77-.09,1.11-.26,1.19-.77,2.81-1.36,3.83-.17.43-.77.85-1.11,1.19-1.79,1.96-4.69,2.9-7.33,2.9-3.49,0-7.07-.77-9.29-3.83-1.02-1.36-1.79-2.81-2.13-4.52l-.43-1.87c-.34-1.11-1.19-1.28-2.22-1.28-1.96,0-3.92.17-5.79.17-.68.09-1.19.26-1.53.85,0,2.47.85,6.99,1.87,9.29.26.6.68,1.19,1.02,1.7.43.77.94,1.79,1.53,2.39,1.79,1.7,5.88,4.18,8.18,5.11.68.26,1.28.51,1.87.94.85.6,3.49.68,4.69.77.26.09.68.26.94.26,1.28,0,2.39-.17,3.66-.43,1.02-.17,4.43-1.36,4.77-1.36.51,0,.68.17,1.28-.17,1.28-.68,2.73-1.45,3.92-2.3,1.02-.77,1.87-1.7,2.81-2.64,1.87-1.79,2.9-3.41,3.66-5.88.34-1.36,1.11-3.75,1.11-5.11Zm-53.78,13.55c0,.43-.27.52-.73.52-3.72.17-7.53.26-11.34.26-.73,0-1.54-.09-2.27-.09-2.18,0-4.26.09-6.35.09-1,0-1.9-.17-2.9-.17-2.45,0-4.81.17-7.25.17-1.54,0-2.27-.6-2.36-1.98-.18-3.01-.09-6.54-.09-9.64-.09-2.06-.27-4.13-.27-6.11,0-.6.09-1.2.09-1.72,0-1.81-.09-3.53-.09-5.33,0-.95.09-1.98.09-3.01.09-1.89,0-3.79,0-5.68,0-3.53-.45-6.97-.45-10.5,0-.34.09-.69.09-1.03,0-1.81-.27-3.61-.18-5.51,0-.34-.09-.69-.09-1.03,0-1.63,1.63-1.55,2.81-1.55,2.36,0,4.62-.26,6.89-.26,1,0,1.9.17,2.9.17,3.9,0,7.89-.26,11.79-.26.82,0,1.54.17,2.27.17h3.17c.91,0,2.36-.26,2.36,1.03,0,.52-2.72.52-3.17.52-1,0-1.99-.17-2.99-.17-4.62,0-9.25.26-13.78.26-.82,0-1.63-.09-2.45-.09-2.63,0-5.35.26-7.89.43l-.09,3.1c0,2.58.36,5.16.36,7.66,0,.43-.09.95-.09,1.38,0,1.12.18,2.32.18,3.44v3.65s2.45.09,3.47.55h8.44c1.36-.38,2.64-.55,3.92-.55.68,0,1.28.09,1.87.09.94,0,2.64.47,2.64.47h5.28s.51-.13.51.13c0,.34-.34.6-.6.6-.77.17-1.7.17-2.56.17-2.47.17-4.94.26-7.41.25h-3.07c-2.13-.08-4.35.17-6.48.17-.85,0-1.7-.17-2.64-.17h-2.64c-.17,1.79-.17,3.58-.17,5.29,0,1.19.17,2.3.17,3.49,0,1.53-.17,3.07-.17,4.6,0,1.36.34,2.64.34,4.01,0,3.07-.17,6.05-.17,9.12,0,.51,0,1.28.34,1.7.77.85,5.99.6,5.99.6v.08c4.08-.17,8.07-.26,12.15-.26,3.54,0,7.07-.09,10.61-.09.73,0,1.99.09,1.99,1.03Zm2.49-1.46c0-2.97-.59-3.82-3.56-3.82-2.46,0-4.92.08-7.38.34-3.31.25-6.62.25-9.92.25-1.19,0-2.29-.25-3.39-.25-1.53,0-3.05.25-4.58.25-.76,0-.76-.42-.76-1.1v-2.97c0-3.05.34-6.02.34-9.08,0-2.38-.17-4.75-.17-7.21,0-1.27.42-1.44,1.7-1.44,1.95-.08,3.9-.08,5.85-.08,1.95-.08,3.99-.25,5.94-.25,1.02,0,2.12.08,3.14.08,2.21,0,4.33-.17,6.53-.25.51,0,.85-.17,1.1-.68.42-.76.51-1.1.51-1.95,0-1.36,0-2.71-.08-4.07-.08-1.44-2.63-1.44-3.73-1.44-1.95,0-3.99.17-5.94.17-3.65,0-7.29.17-10.86.17-1.27,0-2.54-.08-3.82-.08-.85,0-.76-.51-.76-1.19,0-1.27.08-2.55.08-3.82h-.08c.17-2.21.17-4.41.34-6.7,0-.76.08-.76.85-.93,2.71-.34,5.43-.42,8.14-.42,4.5,0,8.99.25,13.49.25,1.87,0,5.17.25,5.17-2.46,0-.51-.08-.93-.08-1.36,0-.85.17-1.78.17-2.63,0-1.27-.42-1.61-1.7-1.7-1.7,0-3.48.08-5.17.08-.85,0-1.7-.25-2.63-.25-1.95,0-3.99.25-6.02.25-1.1,0-2.29-.17-3.39-.17-3.39,0-6.79.08-10.18.08-1.95,0-3.9.25-5.85.25-2.54,0-3.14,2.55-3.14,4.58,0,.42.17.85.17,1.19,0,.59-.17,1.19-.17,1.78,0,2.88.59,5.68.59,8.48,0,1.61-.17,3.22-.17,4.84,0,1.19.08,2.29.08,3.39.08,4.75.25,9.59.25,14.34,0,1.02-.17,2.04-.17,3.14,0,2.04.34,4.16.34,6.28,0,.59-.42,1.19-.42,1.87,0,1.27.34,2.55.34,3.82s-.34,2.55-.34,3.73c0,1.44.85,1.87,2.12,1.87,2.46,0,4.92-.17,7.38-.17,4.58-.08,9.16-.08,13.74-.08,1.95,0,3.82-.17,5.68-.17,1.27,0,2.46.25,3.65.25,1.61,0,3.05-.34,4.58-.34,2.21,0,2.21-3.05,2.21-4.67Zm-56.67.6c0,.77-.26,1.19-1.11,1.19-.43,0-.34-.26-.43-.68-.34-1.02-.26-2.05-.34-3.15-.26-2.3-.34-4.69-.68-7.07l-.34-1.96c-.34-2.81-.26-5.71-.85-8.44-.26-1.02-.17-2.05-.34-3.07-.26-2.39-.34-4.77-.6-7.07l-.34-2.05c-.51-3.24-.94-10.17-.94-10.17h.85c-.09-1.53-.09-3.15-.44-4.69-.96,1.62-1.83,3.49-2.88,5.11-.44.6-.79,1.19-1.14,1.87l-1.48,3.32c-.87,2.05-2.18,4.09-3.32,6.05-1.57,2.98-3.06,5.97-4.54,9.03-1.14,2.3-2.18,4.69-3.14,7.07-.26.6-.61,1.87-1.48,1.87-.17,0-.26-.09-.44-.09-1.05-.34-1.66-1.79-2.18-2.64-.96-1.79-1.83-3.66-2.71-5.37-.35-.6-.7-1.19-1.14-1.7-.87-1.19-3.67-6.65-4.28-8.1-.44-1.11-1.31-2.13-1.92-3.24-2.27-4.01-4.45-8.18-6.64-12.36-.17,1.02-.17,2.05-.26,2.98-.35,1.96-.44,3.92-.7,5.88-.17,1.79-1.05,6.56-.96,8.01,0,.51.09,1.02.09,1.53,0,.6-.17,1.19-.17,1.87v1.02c0,.68-.09,1.36-.17,1.96-.17,1.28-.26,2.47-.26,3.75,0,1.02-.17,2.13-.35,3.24,0,.6.09,1.19.09,1.87,0,.26-.09.51-.09.77-.26,2.05-.09,4.09-.52,6.14-.09.09-.09.26-.09.43,0,.34.09.77.09,1.19,0,1.19-.17,2.3-.17,3.49,0,.6,0,1.36-.17,1.96-.09.51-.7.43-1.14.6-.09,0-.17.09-.35.09s-.17-.51-.17-.6c0-1.19.17-2.39.26-3.49.17-2.22.35-4.52.35-6.73,0-1.19.26-2.39.35-3.49v-2.8c.08-1.6.34-3.12.51-4.72.08-1.01,0-2.11.08-3.12.34-4.04.59-8,1.01-11.96.34-3.28.42-6.65.76-9.94.08-.67.08-1.43.25-2.11,0-.34.17-.76.67-.76,1.01,0,1.68,1.01,2.02,1.85,1.09,2.53,2.44,4.88,3.87,7.24,1.09,1.68,1.94,3.62,2.86,5.39,2.44,4.8,4.88,9.68,7.58,14.32,1.01,1.68,1.77,3.45,2.78,5.14l.67-1.35c2.19-4.21,4.38-8.59,6.48-12.88,1.01-2.11,1.85-4.29,3.03-6.4,1.52-2.44,2.61-5.14,4.13-7.66l.76-1.09c.59-1.18,1.09-2.44,1.6-3.62.25-.59.51-1.52,1.35-1.52.67,0,1.18.67,1.26,1.26.17,2.36-.08,4.8.25,7.16.34,2.27.42,4.55.76,6.82.25,1.94.51,3.79.67,5.64.08.42.25.76.25,1.18v1.51s.77.43.86.6c.26,1.19.34,2.39.43,3.58,0,1.96.26,4.01.51,5.97l.17,2.13.77,5.62c.09.43.26.77.8,1.19v2.13c-.21,1.28.05,3.75.05,5.03Zm4.35,3.5c0-2.3-.43-4.77-.77-7.07-.51-2.9-.43-5.88-.68-8.86-.26-2.81-.43-5.71-.77-8.52-.26-1.45-.34-2.81-.34-4.35,0-2.81-.68-5.45-1.02-8.27-.51-4.09-.6-8.18-1.28-12.27-.34-2.47-.77-4.94-1.02-7.5-.09-1.19-.77-1.87-2.04-1.87-1.87,0-3.75-.17-4.86,1.7-1.79,3.24-3.41,6.56-5.2,9.8-.51.94-1.19,1.7-1.7,2.64-1.45,2.98-7.24,15.68-9.03,17.64-1.19-1.28-1.87-2.98-2.81-4.43-.51-.68-1.02-1.45-1.45-2.22-1.45-2.56-2.3-5.45-3.75-8.1-1.53-2.9-3.32-5.54-4.77-8.52-.34-.51-.51-1.19-.68-1.79-.77-1.96-2.13-3.83-3.32-5.54-.6-.77-1.87-1.02-2.73-1.02-1.62,0-3.83.34-4,2.22-.17,1.87-.26,3.75-.34,5.62-.09,1.36-.09,2.73-.34,4.09-.34,1.62-.43,3.24-.51,4.94-.09,1.02-.09,2.05-.26,3.15-.26,2.22-.77,4.43-.77,6.65,0,1.24-.19,2.49-.17,3.73.02,1.22.05,2.44-.01,3.66-.12,2.28-.17,4.56-.5,6.84-.09.85-.26,1.62-.26,2.47-.17,4.86-.94,9.72-.94,14.57,0,2.56,1.87,2.3,3.83,2.3,2.81,0,5.71.43,5.71-3.41,0-.26-.09-.6-.09-.94,0-.6.34-1.11.43-1.7.17-2.13.26-4.35.26-6.48,0-1.28.26-2.56.26-3.83,0-2.56.6-6.73.85-9.37.34-3.32.6-6.65,1.11-9.97l.26-.09c2.22,2.56,4.43,8.35,6.14,11.5,1.02,2.05,7.16,14.23,9.29,14.23.51,0,.94-.43,1.28-.85,1.28-1.7,2.13-3.75,3.15-5.62,1.02-2.13,2.22-4.26,3.24-6.39.77-1.62,1.36-3.24,2.39-4.69l.51-1.02c1.19-2.56,2.39-5.11,3.75-7.58h.26c.77,3.92,1.28,7.76,1.28,11.76,0,1.36.34,2.56.6,3.92.34,2.05.17,4.09.51,6.14.26,1.96.17,3.83.34,5.71,0,.77.6,1.28.77,2.39.09,1.28.26,2.64.43,3.92.26,1.36.51,2.13,1.96,2.47.34.09.6.51.94.51.43,0,1.45-.6,2.56-.6,1.53,0,4.35.51,4.35-1.7Zm-73.28-7.34c0,1.28-.09,2.56,0,3.83,0,.34-.43,1.02-.85,1.02-1.28,0-.77-4.6-.77-5.54,0-2.64-.26-5.28-.26-7.93,0-1.62.09-3.24.09-4.86,0-1.87-.09-3.83-.09-5.71,0-.68.09-1.28.09-1.96,0-2.13-.17-4.18-.17-6.31-.09-2.9,0-5.79,0-8.69,0-1.87-.17-3.75-.17-5.54,0-1.53.09-2.98.09-4.52,0-.43,0-.51.43-.51,1.45,0,1.11,2.56,1.11,3.49h-.09c.09,1.79,0,3.49,0,5.2s.17,3.32.17,5.03c0,4.35.17,8.78.17,13.12,0,2.39-.17,4.86-.17,7.24,0,2.22.34,4.43.34,6.73-.09.77-.09,1.53-.09,2.3,0,1.19.17,2.39.17,3.58Zm3.83,1.47c0-2.01-.17-4.02-.17-5.94,0-.52.09-1.05.09-1.48,0-1.57-.52-3.06-.52-4.63,0-.7.44-1.31.44-2.01,0-1.22-.44-2.45-.44-3.67,0-.79.09-1.66.09-2.45,0-2.36-.52-4.63-.52-6.99,0-.87.09-1.75.09-2.71,0-1.92.26-3.84.26-5.68,0-2.18-.26-4.37-.26-6.55,0-2.71.08-4.37.08-7.02,0-1.82-.58-2.23-2.32-2.56-.17-.08-.33-.08-.41-.08-1.57,0-4.05-.08-5.46.25-.91.25-1.32.58-1.32,1.57,0,.5.08,1.08.08,1.65l.08,3.39-.08,4.55c0,.83-.08,1.57-.08,2.4,0,1.99.33,3.97.33,5.96s-.17,4.22-.17,6.37c0,1.08-.17,2.07-.17,3.14v11.8l1.18,3.49v2.98l-1.18,5.2v5.11c.09,1.22.61,1.83,1.83,1.92,2.01.17,4.1.17,6.11.17,1.14,0,2.01-1.05,2.01-2.1.09-1.66.09-3.14.35-4.8.09-.44.09-.87.09-1.31Zm-25.05-47.65c0,.94-.17,1.02-1.11,1.02-1.45,0-4.52-.34-4.52-.34,0,0-6.88-.09-10.03-.09-.17,0-.34,0-.51.09l-.09.17c-.09.43-.17.85-.17,1.36,0,1.28.17,2.64.17,4.01,0,.68-.17,1.28-.17,1.96,0,2.39.34,4.86.34,7.33,0,1.36-.17,2.73-.17,4.09,0,4.6.26,9.21.26,13.73v1.79c0,.85-.26,1.62-.26,2.47,0,.51.09.94.09,1.45.17,3.75.17,7.59.17,11.43,0,1.02.17,1.71-1.02,1.71-1.11,0-.85-.17-.85-1.11h-.48l1.18-11.37v-15.42c-.29-1.19-.21-2.39-.21-3.66,0-1.11-.09-2.22-.09-3.41,0-.6.09-1.19.09-1.79,0-.77-.09-1.62-.09-2.47-.17-1.87-.17-3.75-.17-5.62,0-1.19,0-2.39-.09-3.58-.09-.94-.26-1.36-.26-2.64,0-.51-1.79-.34-2.22-.34-2.47,0-4.86.17-7.33.17-2.05,0-4.18,0-6.22-.09-.51-.09-.68-.34-.68-.77,0-1.02.43-1.02,1.28-1.02,2.9,0,5.71.26,8.61.26,1.96,0,4-.09,5.96-.09s4.09.17,6.14.17c2.73,0,5.45-.26,8.18-.26,1.19,0,2.64-.09,3.83.17.34.09.43.26.43.68Zm3.54-1.52c0-1.46.09-2.92-1.75-3.18-5-.6-10.17-.26-15.17-.26-1.05,0-2.1-.17-3.07-.17s-1.93.17-2.98.17c-1.32,0-2.63-.09-4.03-.09-3.42,0-6.84.09-10.26.09-.53,0-1.14-.17-1.75-.17-1.75,0-2.02,1.72-2.02,3.09,0,1.63.09,3.18.18,4.81.09,1.37.53,2.06,2.02,2.15,3.24.09,6.4.09,9.56.09.79,0,1.67.09,2.46.09.96.09,1.05.26,1.05,1.12,0,1.46.35,3.01.35,4.55,0,.6-.18,1.2-.18,1.8,0,1.72.26,3.52.26,5.24.09,2.58.09,5.15.09,7.64,0,1.46-.18,2.83-.18,4.21,0,2.49.09,5.07.09,7.56.09,1.72-.09,3.52-.09,5.24,0,1.37.18,2.75.18,4.12,0,.86-.18,1.8-.18,2.66,0,1.37.18,2.75.18,4.12.18,1.8,1.49,1.72,2.98,1.8,1.32,0,2.54.09,3.77.09,2.63,0,3.77-.6,3.77-3.35,0-1.72-.26-3.35-.26-5.07,0-2.49.18-4.98.18-7.47s-.09-5.07-.09-7.56c0-1.98-.09-3.87-.09-5.84,0-1.63.18-3.35.18-5.07,0-1.2-.18-2.49-.18-3.69,0-.6-.09-1.12-.09-1.72,0-1.12.09-2.23.09-3.44,0-1.8-.09-3.69-.09-5.5,0-.94,0-1.37,1.05-1.37,1.93,0,3.95.09,5.87.09h5.35c1.14,0,2.02-.09,2.37-1.29.44-1.8.44-3.69.44-5.5Z"/>
</svg>