<?xml version="1.0" encoding="UTF-8"?>
<svg id="Layer_2" data-name="Layer 2" xmlns="http://www.w3.org/2000/svg" viewBox="0 0 384.65 278.79">
  <defs>
    <style>
      .cls-1 {
        letter-spacing: .01em;
      }

      .cls-2 {
        letter-spacing: 0em;
      }

      .cls-3 {
        fill: #b68f5e;
      }

      .cls-4 {
        letter-spacing: 0em;
      }

      .cls-5 {
        fill: #ba7129;
      }

      .cls-6 {
        letter-spacing: 0em;
      }

      .cls-7 {
        fill: #1a1a1a;
        font-family: MinionVariableConcept-Roman, 'Minion Variable Concept';
        font-size: 119.28px;
        font-variation-settings: 'wght' 400, 'opsz' 11;
      }

      .cls-8 {
        letter-spacing: 0em;
      }
    </style>
  </defs>
  <g id="Layer_1-2" data-name="Layer 1">
    <g>
      <text class="cls-7" transform="translate(0 214.95) scale(1.1 1)"><tspan class="cls-1" x="0" y="0">Q</tspan><tspan class="cls-6" x="91.84" y="0">u</tspan><tspan class="cls-4" x="155.54" y="0">a</tspan><tspan class="cls-2" x="207.78" y="0">t</tspan><tspan class="cls-8" x="243.33" y="0">r</tspan><tspan x="286.63" y="0">o</tspan></text>
      <path class="cls-5" d="m329.82,234.03c-23,21.25-53.75,34.25-87.53,34.25s-64.53-13-87.53-34.25h-14.88c25.49,27.53,61.93,44.76,102.41,44.76s76.92-17.24,102.41-44.76h-14.88Z"/>
      <g>
        <path class="cls-5" d="m112.59,138.45c0-70.71,57.32-128.02,128.02-128.02s128.02,57.32,128.02,128.02c0,.26,0,.52,0,.78h10.43c0-.26,0-.52,0-.78C379.06,61.99,317.08,0,240.61,0S102.16,61.99,102.16,138.45c0,.26,0,.52,0,.78h10.43c0-.26,0-.52,0-.78Z"/>
        <path class="cls-3" d="m240.61,10.43c-70.71,0-128.02,57.32-128.02,128.02,0,.26,0,.52,0,.78h256.03c0-.26,0-.52,0-.78,0-70.71-57.32-128.02-128.02-128.02Zm-28.96,125.47h-78.22c-5.81,0-10.35-5.07-9.67-10.84,2.67-22.62,11.76-43.27,25.4-60.09,3.62-4.46,10.33-4.75,14.39-.69l54.99,55c6.13,6.13,1.79,16.61-6.88,16.61Zm27.29-24.42c0,8.67-10.48,13.01-16.61,6.88l-56.42-56.44c-4.06-4.06-3.77-10.78.7-14.4,17.19-13.93,38.39-23.1,61.6-25.53,5.74-.6,10.74,3.91,10.74,9.68v79.8Zm3.34.01V31.68c0-5.77,5-10.28,10.74-9.68,23.22,2.43,44.43,11.62,61.63,25.56,4.46,3.62,4.76,10.33.69,14.4l-56.45,56.43c-6.13,6.13-16.61,1.79-16.61-6.88Zm105.51,24.4h-78.21c-8.67,0-13.01-10.48-6.88-16.61l54.99-54.98c4.06-4.06,10.77-3.77,14.39.69,13.62,16.81,22.7,37.45,25.38,60.06.68,5.77-3.86,10.84-9.67,10.84Z"/>
        <path class="cls-5" d="m228.21,21.99c-23.21,2.43-44.4,11.61-61.6,25.53-4.47,3.62-4.76,10.33-.7,14.4l56.42,56.44c6.13,6.13,16.61,1.79,16.61-6.88V31.68c0-5.77-5-10.28-10.74-9.68Z"/>
        <path class="cls-5" d="m314.64,47.55c-17.2-13.94-38.41-23.12-61.63-25.56-5.74-.6-10.74,3.91-10.74,9.68v79.82c0,8.67,10.48,13.01,16.61,6.88l56.45-56.43c4.06-4.06,3.77-10.78-.69-14.4Z"/>
        <path class="cls-5" d="m357.46,125.06c-2.67-22.61-11.75-43.25-25.38-60.06-3.61-4.46-10.33-4.75-14.39-.69l-54.99,54.98c-6.13,6.13-1.79,16.61,6.88,16.61h78.21c5.81,0,10.35-5.07,9.67-10.84Z"/>
        <path class="cls-5" d="m163.55,64.28c-4.06-4.06-10.77-3.77-14.39.69-13.64,16.82-22.73,37.47-25.4,60.09-.68,5.77,3.86,10.84,9.67,10.84h78.22c8.67,0,13.01-10.48,6.88-16.61l-54.99-55Z"/>
      </g>
    </g>
  </g>
</svg>